<svg width="24" height="24" viewBox="0 0 24 24" fill="none" xmlns="http://www.w3.org/2000/svg">
  <g stroke="currentColor" stroke-linecap="round" stroke-linejoin="round">
    <path d="M12 1.75V3.55" stroke-width="1.65"/>
    <path d="M20.45 12H22.25" stroke-width="1.65"/>
    <path d="M1.75 12H3.55" stroke-width="1.65"/>
    <path d="M18.05 5.95L19.35 4.65" stroke-width="1.65"/>
    <path d="M5.95 5.95L4.65 4.65" stroke-width="1.65"/>
    <path d="M18.05 18.05L19.35 19.35" stroke-width="1.65"/>
    <path d="M5.95 18.05L4.65 19.35" stroke-width="1.65"/>

    <circle cx="12" cy="12" r="8.25" stroke-width="1.35"/>
    <circle cx="12" cy="12" r="6.95" stroke-width="0.9"/>
    <path d="M4.15 12H19.85" stroke-width="1.3"/>

    <path d="M6.35 11.85L8.6 9.75L9.55 8.1L10.75 8.3L12.05 5.65L14.7 9.35L15.55 9.1L17.8 11.85" stroke-width="1.15"/>
    <path d="M12.05 5.65L12.6 8.45L11.45 9.65" stroke-width="0.95"/>
    <path d="M10.55 10.65L11.75 9.25" stroke-width="0.95"/>

    <path d="M5.65 13.45L7.25 16.25L10.15 17.45L12 21.8L13.85 17.45L16.75 16.25L18.35 13.45" stroke-width="1.15"/>
    <path d="M12 13.45L11.35 16.35L12.45 18.15L12 21.8" stroke-width="0.95"/>
    <path d="M8.15 14.35L9.25 16.25L10.9 18.15" stroke-width="0.95"/>
    <path d="M15.85 14.35L14.75 16.25L13.1 18.15" stroke-width="0.95"/>
  </g>
</svg>
